<svg width="100" height="100" viewBox="0 0 100 100" fill="none" xmlns="http://www.w3.org/2000/svg">
<g clip-path="url(#clip0_60_89)">
<path d="M78.5625 -0.000868056C75.3203 0.124132 72.8594 0.975694 67.875 5.87413C66.9766 6.70226 45.8516 26.1554 42.375 32.7491C39.6562 37.9132 36.4766 43.2648 33.6875 47.9991C31.8125 51.1944 30.0703 54.2023 28.75 56.6241C23.5938 66.046 21.9375 73.1944 23.75 78.4366C24.3203 80.0929 25.2656 81.5069 26.5 82.7491C26.5078 82.7648 26.4922 82.796 26.5 82.8116C26.8516 83.2726 26.8672 83.2335 26.5 85.2491L26.25 86.5616C25.5078 90.7569 26.6484 95.0773 29.25 97.6866C29.9375 98.3819 31.5391 99.9991 33.5625 99.9991C34.4844 99.9991 35.3594 99.6398 36.0625 98.9991C38.5156 96.7491 36.9453 94.2179 35.8125 92.3741C35.6016 91.9835 35.2734 90.3038 35.5 88.9991C35.6328 88.2257 35.9844 87.4835 37.4375 86.9991C42.8828 86.671 47.4375 82.7882 50.375 75.9366C52.3359 71.3585 52.8672 67.0304 51.875 63.4366C50.8359 59.6788 48.2031 56.7882 44.3125 55.1241C44.125 55.0382 44.0312 54.9679 44 54.9991C44.0156 54.9366 44.0625 54.7726 44.25 54.4991C46.6016 51.1398 48.6016 49.6866 50.9375 47.9991C53.9453 45.8273 57.375 43.3507 61.875 36.4991L81.75 2.99913C82.1172 2.38194 82.1094 1.62413 81.75 0.999132C81.3906 0.374132 80.7188 -0.000868056 80 -0.000868056C79.4922 -0.000868056 79.0234 -0.0164931 78.5625 -0.000868056ZM16.6875 25.9991C6.38281 25.9991 0 31.2804 0 39.8116C0 49.2101 6.51563 53.9991 19.375 53.9991C21.3672 53.9991 23.5547 53.9054 25.75 53.6866C25.7578 53.6866 25.7969 53.6866 25.8125 53.6866C27.1094 51.3663 28.6875 48.6554 30.25 45.9991C31.4609 43.9444 32.7812 41.7257 34.0625 39.4991C33.8828 31.2804 27.0859 25.9991 16.6875 25.9991ZM98.125 25.9991C97.9766 25.9913 97.8359 26.0382 97.6875 26.0616L69.9375 30.7491L65.3125 38.5616L65.25 38.6241L65.1875 38.7491C60.2891 46.2179 56.4453 48.9913 53.3125 51.2491C53.2656 51.2804 53.1719 51.3429 53.125 51.3741C67.2031 48.6085 93.1016 35.9991 94.125 35.4991C99.6875 33.0694 99.9922 28.3273 100 28.1241C100.031 27.5148 99.7656 26.9054 99.3125 26.4991C98.9688 26.1944 98.5703 26.0226 98.125 25.9991ZM17 33.9991C25.9922 33.9991 26 38.5148 26 39.9991C26 41.4835 25.9922 45.9991 17 45.9991C7.99219 45.9991 8 41.4835 8 39.9991C8 38.5148 7.99219 33.9991 17 33.9991ZM42 43.9991C43.1094 43.9991 44 44.8898 44 45.9991C44 47.1085 43.1094 47.9991 42 47.9991C40.8906 47.9991 40 47.1085 40 45.9991C40 44.8898 40.8906 43.9991 42 43.9991ZM38.75 61.8116C39.8438 61.7726 40.6875 62.1632 41.1875 62.3741C42.5234 62.9444 46.6094 64.7023 43.125 72.8116C39.6406 80.9132 35.5859 79.1944 34.25 78.6241C32.9141 78.0538 28.8359 76.296 32.3125 68.1866C34.4922 63.1163 36.9297 61.8741 38.75 61.8116Z" fill="#FF4444"/>
</g>
<defs>
<clipPath id="clip0_60_89">
<rect width="100" height="100" fill="white"/>
</clipPath>
</defs>
</svg>
