<svg width="141" height="141" viewBox="0 0 141 141" fill="none" xmlns="http://www.w3.org/2000/svg">
<g clip-path="url(#clip0_60_87)">
<path d="M33.9755 42.0615C33.0964 42.7226 32.9181 43.9829 33.5793 44.862L35.9835 48.0588L31.1883 51.6652C30.7408 52.0018 30.4535 52.5189 30.3902 53.067C30.3549 53.6191 30.5197 54.1702 30.8883 54.5937L41.4643 66.4593L74.5187 41.5997L66.0532 28.1469C65.7485 27.6753 65.2648 27.364 64.7246 27.2447C64.1805 27.1535 63.6039 27.286 63.1564 27.6226L58.3612 31.229L55.9569 28.0322C55.2957 27.1531 54.0355 26.9747 53.1564 27.6359C52.2773 28.2971 52.0989 29.5573 52.7601 30.4364L58.7707 38.4285C59.4319 39.3076 59.2536 40.5678 58.3745 41.229C57.4953 41.8902 56.2351 41.7118 55.5739 40.8327L49.5633 32.8407C48.9021 31.9616 47.6419 31.7833 46.7628 32.4444C45.8836 33.1056 45.7053 34.3658 46.3665 35.245L52.3771 43.237C53.0383 44.1161 52.86 45.3763 51.9808 46.0375C51.1017 46.6987 49.8415 46.5203 49.1803 45.6412L43.1697 37.6492C42.5085 36.7701 41.2483 36.5918 40.3692 37.2529C39.49 37.9141 39.3117 39.1743 39.9729 40.0535L45.9835 48.0455C46.6447 48.9246 46.4664 50.1848 45.5872 50.846C44.7081 51.5072 43.4479 51.3289 42.7867 50.4497L36.7761 42.4577C36.1149 41.5786 34.8547 41.4003 33.9755 42.0615ZM44.1401 69.4519L45.5586 71.039C46.6803 72.2975 48.1016 73.2547 49.6944 73.8085L51.6937 74.5043C53.1904 75.0303 54.4844 75.9858 55.4341 77.2486L74.91 103.145C80.1512 110.114 90.5535 111.797 97.6149 106.812L97.9989 106.523C101.244 104.083 103.365 100.585 103.984 96.616C104.662 92.3271 103.537 87.9689 100.832 84.3725L81.0085 58.0145C80.0588 56.7518 79.4999 55.2435 79.4098 53.6596L79.296 51.5457C79.2058 49.8618 78.6809 48.2311 77.7709 46.7883L76.6514 45.0008L44.1401 69.4519ZM71.2149 71.6119C74.7474 68.9552 79.7603 69.6646 82.417 73.197L89.6298 82.7874C92.2865 86.3199 91.5771 91.3329 88.0447 93.9896C84.5122 96.6463 79.4993 95.9369 76.8426 92.4045L69.6298 82.8141C66.9731 79.2816 67.6824 74.2686 71.2149 71.6119ZM72.8266 80.4098L80.0394 90.0002C81.3617 91.7585 83.8822 92.1151 85.6404 90.7928C87.3987 89.4704 87.7553 86.9499 86.433 85.1917L79.2202 75.6013C80.5425 77.3595 80.1859 79.88 78.4277 81.2023C76.6694 82.5247 74.1489 82.168 72.8266 80.4098Z" fill="#FF4444"/>
</g>
<defs>
<clipPath id="clip0_60_87">
<rect width="100" height="100" fill="white" transform="translate(0 60.1064) rotate(-36.9461)"/>
</clipPath>
</defs>
</svg>
