<svg width="100" height="100" viewBox="0 0 100 100" fill="none" xmlns="http://www.w3.org/2000/svg">
<path d="M95.1003 35.0993L70.0003 9.99935C69.5003 9.49935 68.787 9.23602 67.997 9.06268C66.8237 7.61268 65.057 6.66602 63.047 6.66602C60.6603 6.66602 58.6003 7.99268 57.507 9.93602C57.2203 9.96268 56.9137 9.99935 56.667 9.99935L10.0003 56.666C9.63033 57.036 9.35699 57.576 9.14033 58.1894C7.64366 59.4094 6.66699 61.2493 6.66699 63.3327C6.66699 65.8027 8.02699 67.936 10.0237 69.086C10.4203 70.0327 10.867 70.866 11.3837 71.3793L13.3337 73.3327L13.4437 73.4427L23.3337 83.3327L23.3403 83.326L34.967 94.9327L35.0003 94.8993C35.8337 95.966 37.1337 96.666 38.6337 96.666C41.2337 96.666 43.3337 94.566 43.3337 91.966C43.3337 90.566 42.7337 89.2994 41.7337 88.466L41.767 88.4327L30.0003 76.666L36.6737 69.9927L48.3003 81.5993L48.3337 81.566C49.167 82.6327 50.467 83.3327 51.967 83.3327C54.567 83.3327 56.667 81.2327 56.667 78.6327C56.667 77.2327 56.067 75.966 55.067 75.1327L55.1003 75.0993L43.3337 63.3327L50.007 56.6593L61.6337 68.266L61.667 68.2327C62.5003 69.2993 63.8003 69.9993 65.3003 69.9993C67.9003 69.9993 70.0003 67.8993 70.0003 65.2993C70.0003 63.8993 69.4003 62.6327 68.4003 61.7994L68.4337 61.766L56.667 49.9993L63.3403 43.326L74.967 54.9327L75.0003 54.8993C75.8337 55.966 77.1337 56.666 78.6337 56.666C81.2337 56.666 83.3337 54.566 83.3337 51.966C83.3337 50.566 82.7337 49.2993 81.7337 48.466L81.767 48.4327L70.0003 36.666L76.6737 29.9927L88.3003 41.5993L88.3337 41.566C89.167 42.6327 90.467 43.3327 91.967 43.3327C94.567 43.3327 96.667 41.2327 96.667 38.6327C96.667 37.2327 96.067 35.966 95.067 35.1327L95.1003 35.0993Z" fill="#FF4444"/>
</svg>
